<?xml version="1.0" encoding="utf-8"?>
<!-- Generator: Adobe Illustrator 25.0.1, SVG Export Plug-In . SVG Version: 6.00 Build 0)  -->
<svg version="1.1" id="Layer_1" xmlns="http://www.w3.org/2000/svg" xmlns:xlink="http://www.w3.org/1999/xlink" x="0px" y="0px"
	 viewBox="0 0 118 29" style="enable-background:new 0 0 118 29;" xml:space="preserve">
<style type="text/css">
	.st0{enable-background:new    ;}
	.st1{fill:#0089FF;}
	.st2{fill:#001527;}
</style>
<g id="XMLID_14_" class="st0">
	<path id="XMLID_25_" class="st1" d="M1.3,23V5.5h7.3c1.3,0,2.4,0.2,3.3,0.6c0.9,0.4,1.5,0.9,2,1.6c0.4,0.7,0.7,1.4,0.7,2.3
		c0,0.7-0.1,1.3-0.4,1.8c-0.3,0.5-0.7,1-1.2,1.3s-1.1,0.6-1.7,0.7v0.2c0.7,0,1.4,0.2,2,0.6c0.6,0.3,1.1,0.8,1.4,1.4s0.5,1.3,0.5,2.2
		c0,0.9-0.2,1.8-0.7,2.5c-0.5,0.7-1.2,1.3-2.1,1.7c-0.9,0.4-2,0.6-3.3,0.6H1.3z M5.5,12.7h2.3c0.5,0,0.9-0.1,1.2-0.2
		c0.4-0.2,0.6-0.4,0.8-0.7c0.2-0.3,0.3-0.6,0.3-1c0-0.6-0.2-1-0.6-1.4c-0.4-0.3-1-0.5-1.7-0.5H5.5V12.7z M5.5,19.6h2.6
		c0.9,0,1.6-0.2,2-0.5c0.4-0.3,0.7-0.8,0.7-1.4c0-0.4-0.1-0.8-0.3-1.2c-0.2-0.3-0.5-0.6-0.9-0.8c-0.4-0.2-0.8-0.3-1.4-0.3H5.5V19.6z
		"/>
	<path id="XMLID_22_" class="st1" d="M23.4,23.2c-1.4,0-2.6-0.3-3.5-0.8S18.1,21,17.6,20c-0.5-1-0.8-2.2-0.8-3.5
		c0-1.3,0.3-2.5,0.8-3.5c0.5-1,1.3-1.8,2.3-2.4s2.2-0.8,3.5-0.8s2.6,0.3,3.5,0.8c1,0.6,1.7,1.4,2.3,2.4c0.5,1,0.8,2.2,0.8,3.5
		c0,1.3-0.3,2.5-0.8,3.5c-0.5,1-1.3,1.8-2.3,2.4C25.9,23,24.7,23.2,23.4,23.2z M23.4,20.1c0.5,0,0.9-0.2,1.3-0.5
		c0.3-0.3,0.6-0.7,0.8-1.3c0.2-0.5,0.3-1.2,0.3-1.9c0-0.7-0.1-1.4-0.3-1.9s-0.5-1-0.8-1.3c-0.3-0.3-0.8-0.5-1.3-0.5
		c-0.5,0-1,0.2-1.3,0.5c-0.4,0.3-0.6,0.7-0.8,1.3S21,15.7,21,16.5c0,0.7,0.1,1.3,0.3,1.9c0.2,0.5,0.5,1,0.8,1.3
		C22.4,19.9,22.9,20.1,23.4,20.1z"/>
	<path id="XMLID_19_" class="st1" d="M38.2,23.2c-1.4,0-2.6-0.3-3.5-0.8S32.9,21,32.4,20c-0.5-1-0.8-2.2-0.8-3.5
		c0-1.3,0.3-2.5,0.8-3.5c0.5-1,1.3-1.8,2.3-2.4s2.2-0.8,3.5-0.8s2.6,0.3,3.5,0.8c1,0.6,1.7,1.4,2.3,2.4c0.5,1,0.8,2.2,0.8,3.5
		c0,1.3-0.3,2.5-0.8,3.5c-0.5,1-1.3,1.8-2.3,2.4C40.8,23,39.6,23.2,38.2,23.2z M38.3,20.1c0.5,0,0.9-0.2,1.3-0.5
		c0.3-0.3,0.6-0.7,0.8-1.3c0.2-0.5,0.3-1.2,0.3-1.9c0-0.7-0.1-1.4-0.3-1.9s-0.5-1-0.8-1.3c-0.3-0.3-0.8-0.5-1.3-0.5
		c-0.5,0-1,0.2-1.3,0.5c-0.4,0.3-0.6,0.7-0.8,1.3s-0.3,1.2-0.3,1.9c0,0.7,0.1,1.3,0.3,1.9c0.2,0.5,0.5,1,0.8,1.3
		C37.3,19.9,37.7,20.1,38.3,20.1z"/>
	<path id="XMLID_15_" class="st1" d="M47,23V5.5h4.2V23H47z M50.7,19.6l0-5h0.6L55,9.9h4.7l-5.5,6.7h-1.1L50.7,19.6z M55.1,23
		l-3.4-5.4l2.7-3l5.5,8.4H55.1z"/>
</g>
<g id="XMLID_4_" class="st0">
	<path id="XMLID_12_" class="st2" d="M77.1,11.9h-4.3c-0.1-0.4-0.2-0.8-0.3-1.2s-0.4-0.7-0.7-0.9c-0.3-0.2-0.6-0.4-1-0.6
		C70.4,9.1,69.9,9,69.4,9c-0.8,0-1.6,0.2-2.2,0.6c-0.6,0.4-1.1,1-1.4,1.8c-0.3,0.8-0.5,1.7-0.5,2.8c0,1.2,0.2,2.1,0.5,2.9
		c0.3,0.8,0.8,1.4,1.4,1.8c0.6,0.4,1.3,0.6,2.2,0.6c0.5,0,0.9-0.1,1.3-0.2c0.4-0.1,0.7-0.3,1-0.5c0.3-0.2,0.5-0.5,0.7-0.8
		c0.2-0.3,0.3-0.7,0.4-1.1l4.3,0c-0.1,0.8-0.3,1.5-0.7,2.3s-0.9,1.4-1.5,2c-0.6,0.6-1.4,1.1-2.4,1.5s-2,0.5-3.2,0.5
		c-1.6,0-3-0.3-4.2-1c-1.2-0.7-2.2-1.7-3-3c-0.7-1.3-1.1-3-1.1-4.9c0-1.9,0.4-3.5,1.1-4.9c0.7-1.3,1.7-2.3,3-3s2.7-1,4.2-1
		c1.1,0,2,0.1,2.9,0.4C73.2,6,74,6.5,74.6,7s1.2,1.2,1.7,2.1C76.7,9.9,77,10.8,77.1,11.9z"/>
	<path id="XMLID_10_" class="st2" d="M83.7,5.5V23h-4.2V5.5H83.7z"/>
	<path id="XMLID_8_" class="st2" d="M94.7,17.3V9.9h4.2V23h-4v-2.4h-0.1c-0.3,0.8-0.8,1.4-1.5,1.9s-1.5,0.7-2.5,0.7
		c-0.9,0-1.7-0.2-2.4-0.6c-0.7-0.4-1.2-1-1.6-1.7c-0.4-0.7-0.6-1.6-0.6-2.6V9.9h4.2v7.5c0,0.7,0.2,1.3,0.6,1.7
		c0.4,0.4,0.9,0.6,1.5,0.6c0.4,0,0.8-0.1,1.1-0.3s0.6-0.5,0.8-0.8C94.6,18.3,94.7,17.9,94.7,17.3z"/>
	<path id="XMLID_5_" class="st2" d="M101.6,23V5.5h4.2v6.6h0.1c0.2-0.4,0.4-0.8,0.7-1.2c0.3-0.4,0.7-0.7,1.2-0.9
		c0.5-0.2,1.1-0.4,1.8-0.4c0.9,0,1.8,0.2,2.6,0.7c0.8,0.5,1.4,1.2,1.9,2.2c0.5,1,0.7,2.3,0.7,3.8c0,1.5-0.2,2.7-0.7,3.7
		s-1.1,1.8-1.9,2.2c-0.8,0.5-1.7,0.8-2.6,0.8c-0.7,0-1.2-0.1-1.7-0.3c-0.5-0.2-0.9-0.5-1.2-0.9c-0.3-0.4-0.6-0.7-0.8-1.1h-0.1V23
		H101.6z M105.6,16.5c0,0.7,0.1,1.3,0.3,1.8c0.2,0.5,0.5,0.9,0.8,1.2c0.4,0.3,0.8,0.4,1.3,0.4c0.5,0,0.9-0.1,1.3-0.4
		c0.4-0.3,0.6-0.7,0.8-1.2c0.2-0.5,0.3-1.1,0.3-1.8c0-0.7-0.1-1.3-0.3-1.8c-0.2-0.5-0.5-0.9-0.8-1.2c-0.4-0.3-0.8-0.4-1.3-0.4
		c-0.5,0-0.9,0.1-1.3,0.4c-0.4,0.3-0.6,0.7-0.8,1.2C105.7,15.1,105.6,15.7,105.6,16.5z"/>
</g>
</svg>
