<svg xmlns="http://www.w3.org/2000/svg" viewBox="0 0 210.36 54.24"><g style="isolation:isolate"><g style="isolation:isolate"><path d="M2.42,43V11H15.77a15.61,15.61,0,0,1,6,1,7.89,7.89,0,0,1,3.66,2.84,7.47,7.47,0,0,1,1.22,4.23,6.61,6.61,0,0,1-2.87,5.63A8.59,8.59,0,0,1,20.69,26v.31a8,8,0,0,1,3.58,1.05A7.32,7.32,0,0,1,26.92,30a7.73,7.73,0,0,1,1,4,8.3,8.3,0,0,1-1.31,4.6,8.91,8.91,0,0,1-3.8,3.19,14.19,14.19,0,0,1-6,1.16Zm7.74-18.84h4.28a5.54,5.54,0,0,0,2.25-.43,3.53,3.53,0,0,0,1.54-1.21,3.32,3.32,0,0,0,.55-1.93,3.09,3.09,0,0,0-1.14-2.53,4.79,4.79,0,0,0-3.08-.92h-4.4Zm0,12.61h4.78a5.9,5.9,0,0,0,3.71-1,3.18,3.18,0,0,0,1.19-2.65A3.91,3.91,0,0,0,19.27,31a3.84,3.84,0,0,0-1.65-1.39,5.93,5.93,0,0,0-2.54-.49H10.16Z" transform="translate(-1.33 -10.56)" fill="#0089ff"/><path d="M42.84,43.45a12.8,12.8,0,0,1-6.49-1.55,10.53,10.53,0,0,1-4.17-4.35,13.75,13.75,0,0,1-1.46-6.47,13.83,13.83,0,0,1,1.46-6.49,10.53,10.53,0,0,1,4.17-4.35,12.91,12.91,0,0,1,6.49-1.55,13,13,0,0,1,6.5,1.55,10.66,10.66,0,0,1,4.17,4.35A13.83,13.83,0,0,1,55,31.08a13.75,13.75,0,0,1-1.46,6.47,10.66,10.66,0,0,1-4.17,4.35A12.84,12.84,0,0,1,42.84,43.45Zm0-5.76a3.36,3.36,0,0,0,2.33-.85,5.37,5.37,0,0,0,1.46-2.34A10.79,10.79,0,0,0,47.19,31a10.89,10.89,0,0,0-.51-3.5,5.37,5.37,0,0,0-1.46-2.34,3.36,3.36,0,0,0-2.33-.85,3.51,3.51,0,0,0-2.4.85A5.22,5.22,0,0,0,39,27.53,10.89,10.89,0,0,0,38.5,31,10.79,10.79,0,0,0,39,34.5a5.22,5.22,0,0,0,1.48,2.34A3.51,3.51,0,0,0,42.89,37.69Z" transform="translate(-1.33 -10.56)" fill="#0089ff"/><path d="M70.09,43.45A12.8,12.8,0,0,1,63.6,41.9a10.53,10.53,0,0,1-4.17-4.35A13.75,13.75,0,0,1,58,31.08a13.83,13.83,0,0,1,1.46-6.49,10.53,10.53,0,0,1,4.17-4.35,14.38,14.38,0,0,1,13,0,10.66,10.66,0,0,1,4.17,4.35,13.83,13.83,0,0,1,1.46,6.49,13.75,13.75,0,0,1-1.46,6.47,10.66,10.66,0,0,1-4.17,4.35A12.84,12.84,0,0,1,70.09,43.45Zm0-5.76a3.36,3.36,0,0,0,2.33-.85,5.37,5.37,0,0,0,1.46-2.34A10.79,10.79,0,0,0,74.44,31a10.89,10.89,0,0,0-.51-3.5,5.37,5.37,0,0,0-1.46-2.34,3.36,3.36,0,0,0-2.33-.85,3.51,3.51,0,0,0-2.4.85,5.22,5.22,0,0,0-1.48,2.34,10.89,10.89,0,0,0-.51,3.5,10.79,10.79,0,0,0,.51,3.47,5.22,5.22,0,0,0,1.48,2.34A3.51,3.51,0,0,0,70.14,37.69Z" transform="translate(-1.33 -10.56)" fill="#0089ff"/><path d="M86.14,43V11h7.64V43ZM93,36.7l0-9.11h1.06L100.87,19h8.66l-10,12.31h-2Zm8,6.3L94.76,33l5-5.42L109.87,43Z" transform="translate(-1.33 -10.56)" fill="#0089ff"/></g><g style="isolation:isolate"><path d="M141.33,22.59h-7.82a6.53,6.53,0,0,0-.64-2.17,5.2,5.2,0,0,0-1.28-1.65,5.67,5.67,0,0,0-1.88-1.06,7.55,7.55,0,0,0-2.4-.37,7,7,0,0,0-4,1.14,7.17,7.17,0,0,0-2.57,3.3,13.56,13.56,0,0,0-.9,5.22,13.72,13.72,0,0,0,.91,5.34,7,7,0,0,0,2.58,3.23,7.08,7.08,0,0,0,3.94,1.09,7.78,7.78,0,0,0,2.34-.33,5.86,5.86,0,0,0,1.86-1,5.24,5.24,0,0,0,1.33-1.55,6.19,6.19,0,0,0,.72-2.07l7.82.05A12.05,12.05,0,0,1,140.1,36,13.17,13.17,0,0,1,133,42.44a16.08,16.08,0,0,1-5.85,1,15.66,15.66,0,0,1-7.78-1.92,13.61,13.61,0,0,1-5.41-5.58,18.63,18.63,0,0,1-2-8.94,18.41,18.41,0,0,1,2-8.95,13.78,13.78,0,0,1,5.46-5.58,15.59,15.59,0,0,1,7.7-1.91,17.08,17.08,0,0,1,5.37.81,13.21,13.21,0,0,1,4.35,2.34,12.18,12.18,0,0,1,3,3.77A13.71,13.71,0,0,1,141.33,22.59Z" transform="translate(-1.33 -10.56)" fill="#001527"/><path d="M153.37,11V43h-7.64V11Z" transform="translate(-1.33 -10.56)" fill="#001527"/><path d="M173.7,32.64V19h7.63V43H174V38.53h-.25A6.91,6.91,0,0,1,171.08,42a8,8,0,0,1-4.61,1.29,8.18,8.18,0,0,1-4.32-1.12A7.66,7.66,0,0,1,159.26,39a10.54,10.54,0,0,1-1-4.74V19h7.64V32.8a4.49,4.49,0,0,0,1,3.08A3.57,3.57,0,0,0,169.65,37a4.17,4.17,0,0,0,2.06-.51A3.69,3.69,0,0,0,173.16,35,4.83,4.83,0,0,0,173.7,32.64Z" transform="translate(-1.33 -10.56)" fill="#001527"/><path d="M186.18,43V11h7.65V23.11H194A8.22,8.22,0,0,1,195.32,21a6.51,6.51,0,0,1,2.22-1.66,7.32,7.32,0,0,1,3.24-.65A8.88,8.88,0,0,1,205.46,20,9.35,9.35,0,0,1,209,24.05a15.71,15.71,0,0,1,1.35,7A16,16,0,0,1,209,37.84,9.47,9.47,0,0,1,205.57,42a8.88,8.88,0,0,1-4.84,1.37,7.59,7.59,0,0,1-3.14-.59,7,7,0,0,1-2.23-1.56A7.61,7.61,0,0,1,194,39.11h-.23V43Zm7.49-12a9.88,9.88,0,0,0,.52,3.38,4.92,4.92,0,0,0,1.52,2.22,4,4,0,0,0,4.77,0A4.8,4.8,0,0,0,202,34.38a10.14,10.14,0,0,0,.51-3.38,10,10,0,0,0-.51-3.36,4.79,4.79,0,0,0-1.48-2.2,3.72,3.72,0,0,0-2.4-.78,3.78,3.78,0,0,0-2.39.76,4.75,4.75,0,0,0-1.51,2.19A9.82,9.82,0,0,0,193.67,31Z" transform="translate(-1.33 -10.56)" fill="#001527"/></g></g><g style="isolation:isolate"><g style="isolation:isolate"><path d="M1.33,52.55H2.64L5.27,57h.11L8,52.55H9.31L5.89,58.1V62H4.75V58.1Z" transform="translate(-1.33 -10.56)" fill="#868d96"/><path d="M12.52,62.15a3,3,0,0,1-1.68-.46,3.07,3.07,0,0,1-1.13-1.28,4.83,4.83,0,0,1,0-3.85,3.16,3.16,0,0,1,1.13-1.29,3.1,3.1,0,0,1,1.68-.45,2.95,2.95,0,0,1,2.81,1.74,4.72,4.72,0,0,1,0,3.85,3,3,0,0,1-1.12,1.28A3.08,3.08,0,0,1,12.52,62.15Zm0-1a1.85,1.85,0,0,0,1.2-.38,2.08,2.08,0,0,0,.7-1,3.73,3.73,0,0,0,.23-1.32,3.81,3.81,0,0,0-.23-1.32,2.25,2.25,0,0,0-.7-1,1.85,1.85,0,0,0-1.2-.37,1.89,1.89,0,0,0-1.2.37,2.31,2.31,0,0,0-.69,1,3.59,3.59,0,0,0-.23,1.32,3.52,3.52,0,0,0,.23,1.32,2.13,2.13,0,0,0,.69,1A1.89,1.89,0,0,0,12.52,61.17Z" transform="translate(-1.33 -10.56)" fill="#868d96"/><path d="M21.87,59.1V54.91H23V62H21.87V60.8h-.08a2.32,2.32,0,0,1-.77.92,2.24,2.24,0,0,1-1.33.37,2.27,2.27,0,0,1-1.18-.29,2,2,0,0,1-.82-.89,3.41,3.41,0,0,1-.29-1.49V54.91h1.09v4.43a1.73,1.73,0,0,0,.43,1.24A1.47,1.47,0,0,0,20,61a1.91,1.91,0,0,0,1.54-.84A2,2,0,0,0,21.87,59.1Z" transform="translate(-1.33 -10.56)" fill="#868d96"/><path d="M25,62V54.91H26V56h.08a1.66,1.66,0,0,1,.7-.85,2.05,2.05,0,0,1,1.14-.33h.3l.28,0v1.1l-.26,0a2.63,2.63,0,0,0-.41,0,1.87,1.87,0,0,0-.92.22,1.65,1.65,0,0,0-.64.59,1.61,1.61,0,0,0-.23.85V62Z" transform="translate(-1.33 -10.56)" fill="#868d96"/><path d="M33.59,62V52.55h1.15V61h4.39v1Z" transform="translate(-1.33 -10.56)" fill="#868d96"/><path d="M41.31,53.73a.77.77,0,0,1-.55-.22.72.72,0,0,1,0-1,.77.77,0,0,1,.55-.22.75.75,0,0,1,.55.22.7.7,0,0,1,0,1A.75.75,0,0,1,41.31,53.73ZM40.76,62V54.91h1.09V62Z" transform="translate(-1.33 -10.56)" fill="#868d96"/><path d="M44,62V52.55h1.09V56h.09a5.08,5.08,0,0,1,.34-.48,2,2,0,0,1,.61-.52,2.29,2.29,0,0,1,1.1-.22,2.89,2.89,0,0,1,1.58.44,3.12,3.12,0,0,1,1.07,1.27,5.17,5.17,0,0,1,0,3.89A3,3,0,0,1,48.8,61.7a2.75,2.75,0,0,1-1.56.45,2.31,2.31,0,0,1-1.1-.23,2.09,2.09,0,0,1-.63-.52c-.15-.2-.26-.36-.34-.49H45V62Zm1.07-3.55a4.1,4.1,0,0,0,.23,1.42,2.17,2.17,0,0,0,.69,1,1.83,1.83,0,0,0,1.11.34,1.77,1.77,0,0,0,1.14-.36,2.23,2.23,0,0,0,.7-1,4,4,0,0,0,.23-1.38,3.9,3.9,0,0,0-.23-1.35,2,2,0,0,0-.69-1,1.79,1.79,0,0,0-1.15-.35,1.88,1.88,0,0,0-1.12.33,2,2,0,0,0-.68.93A3.93,3.93,0,0,0,45.06,58.45Z" transform="translate(-1.33 -10.56)" fill="#868d96"/><path d="M51.91,62V54.91H53V56H53a1.66,1.66,0,0,1,.7-.85,2.05,2.05,0,0,1,1.14-.33h.3l.28,0v1.1l-.26,0a2.63,2.63,0,0,0-.41,0,1.87,1.87,0,0,0-.92.22,1.65,1.65,0,0,0-.64.59,1.61,1.61,0,0,0-.23.85V62Z" transform="translate(-1.33 -10.56)" fill="#868d96"/><path d="M58.83,62.17a2.9,2.9,0,0,1-1.22-.26,2.1,2.1,0,0,1-.87-.74A2.07,2.07,0,0,1,56.42,60a1.81,1.81,0,0,1,.24-1,1.61,1.61,0,0,1,.64-.6,3.49,3.49,0,0,1,.89-.33c.32-.07.65-.13,1-.17l1-.13a1.66,1.66,0,0,0,.59-.15.39.39,0,0,0,.19-.37v0a1.43,1.43,0,0,0-.38-1.06,1.46,1.46,0,0,0-1.12-.38,1.92,1.92,0,0,0-1.22.34,2,2,0,0,0-.63.73l-1-.37a2.44,2.44,0,0,1,.74-1,2.88,2.88,0,0,1,1-.51,4.51,4.51,0,0,1,1.08-.14,4,4,0,0,1,.79.08,2.39,2.39,0,0,1,.86.33,1.89,1.89,0,0,1,.7.75,2.86,2.86,0,0,1,.27,1.35V62H61V61h-.06a1.85,1.85,0,0,1-.37.49,2,2,0,0,1-.69.45A2.66,2.66,0,0,1,58.83,62.17Zm.17-1a2.14,2.14,0,0,0,1.09-.26,1.78,1.78,0,0,0,.68-.65,1.72,1.72,0,0,0,.23-.85v-1a.8.8,0,0,1-.31.15,4.88,4.88,0,0,1-.53.11l-.59.08-.46.06a4.58,4.58,0,0,0-.79.18,1.4,1.4,0,0,0-.59.36,1,1,0,0,0-.22.66,1,1,0,0,0,.42.86A1.87,1.87,0,0,0,59,61.19Z" transform="translate(-1.33 -10.56)" fill="#868d96"/><path d="M64.08,62V54.91h1V56h.08a1.61,1.61,0,0,1,.7-.85,2.05,2.05,0,0,1,1.14-.33h.3l.27,0v1.1l-.25,0a2.73,2.73,0,0,0-.41,0,1.87,1.87,0,0,0-.92.22,1.65,1.65,0,0,0-.64.59,1.61,1.61,0,0,0-.23.85V62Z" transform="translate(-1.33 -10.56)" fill="#868d96"/><path d="M69.84,64.66a3.47,3.47,0,0,1-.49,0,1.08,1.08,0,0,1-.3-.09l.27-1a2,2,0,0,0,.7.07.83.83,0,0,0,.55-.27,2.14,2.14,0,0,0,.43-.78l.21-.55-2.63-7.13h1.19l2,5.65h.08l2-5.65h1.19l-3,8.12a3.34,3.34,0,0,1-.51.92,1.83,1.83,0,0,1-.69.53A2.11,2.11,0,0,1,69.84,64.66Z" transform="translate(-1.33 -10.56)" fill="#868d96"/><path d="M80.18,52.55h1.37l3.21,7.84h.11l3.21-7.84h1.37V62H88.38V54.82h-.09l-3,7.18h-1l-3-7.18h-.09V62H80.18Z" transform="translate(-1.33 -10.56)" fill="#868d96"/><path d="M93.68,62.17a2.84,2.84,0,0,1-1.22-.26A2,2,0,0,1,91.26,60a1.81,1.81,0,0,1,.24-1,1.61,1.61,0,0,1,.64-.6,3.63,3.63,0,0,1,.89-.33c.33-.07.65-.13,1-.17l1-.13a1.6,1.6,0,0,0,.59-.15.38.38,0,0,0,.19-.37v0a1.43,1.43,0,0,0-.37-1.06,1.49,1.49,0,0,0-1.13-.38,1.94,1.94,0,0,0-1.22.34,2.07,2.07,0,0,0-.62.73l-1-.37a2.63,2.63,0,0,1,.74-1,2.88,2.88,0,0,1,1-.51,4.59,4.59,0,0,1,1.09-.14,3.82,3.82,0,0,1,.78.08,2.44,2.44,0,0,1,.87.33,1.8,1.8,0,0,1,.69.75,2.74,2.74,0,0,1,.28,1.35V62H95.84V61h-.06a1.79,1.79,0,0,1-.36.49,2.17,2.17,0,0,1-.69.45A2.74,2.74,0,0,1,93.68,62.17Zm.17-1a2.17,2.17,0,0,0,1.09-.26,1.75,1.75,0,0,0,.67-.65,1.72,1.72,0,0,0,.23-.85v-1a.81.81,0,0,1-.3.15c-.16,0-.34.08-.54.11l-.58.08-.46.06a4.69,4.69,0,0,0-.8.18,1.4,1.4,0,0,0-.59.36,1,1,0,0,0-.22.66,1,1,0,0,0,.42.86A1.89,1.89,0,0,0,93.85,61.19Z" transform="translate(-1.33 -10.56)" fill="#868d96"/><path d="M100,57.73V62H98.92V54.91H100V56h.09a2,2,0,0,1,.76-.87,2.33,2.33,0,0,1,1.31-.33,2.55,2.55,0,0,1,1.26.29,2,2,0,0,1,.84.89,3.27,3.27,0,0,1,.3,1.49V62h-1.09V57.57a1.87,1.87,0,0,0-.44-1.31,1.54,1.54,0,0,0-1.19-.46,1.93,1.93,0,0,0-.93.22,1.63,1.63,0,0,0-.64.66A2.14,2.14,0,0,0,100,57.73Z" transform="translate(-1.33 -10.56)" fill="#868d96"/><path d="M108.62,62.17a2.91,2.91,0,0,1-1.23-.26A2,2,0,0,1,106.2,60a1.81,1.81,0,0,1,.24-1,1.61,1.61,0,0,1,.64-.6,3.49,3.49,0,0,1,.89-.33c.32-.07.65-.13,1-.17l1-.13a1.6,1.6,0,0,0,.59-.15.38.38,0,0,0,.19-.37v0a1.47,1.47,0,0,0-.37-1.06,1.5,1.5,0,0,0-1.13-.38,1.94,1.94,0,0,0-1.22.34,2,2,0,0,0-.62.73l-1-.37a2.53,2.53,0,0,1,.74-1,2.88,2.88,0,0,1,1-.51,4.59,4.59,0,0,1,1.09-.14,3.89,3.89,0,0,1,.78.08,2.44,2.44,0,0,1,.87.33,1.87,1.87,0,0,1,.69.75,2.74,2.74,0,0,1,.28,1.35V62h-1.09V61h-.06a1.66,1.66,0,0,1-.37.49,2,2,0,0,1-.68.45A2.74,2.74,0,0,1,108.62,62.17Zm.16-1a2.21,2.21,0,0,0,1.1-.26,1.75,1.75,0,0,0,.67-.65,1.72,1.72,0,0,0,.23-.85v-1a.81.81,0,0,1-.3.15c-.16,0-.34.08-.54.11l-.59.08-.46.06a4.8,4.8,0,0,0-.79.18,1.4,1.4,0,0,0-.59.36,1,1,0,0,0-.22.66,1,1,0,0,0,.42.86A1.87,1.87,0,0,0,108.78,61.19Z" transform="translate(-1.33 -10.56)" fill="#868d96"/><path d="M116.72,64.81a4.17,4.17,0,0,1-1.35-.2,3,3,0,0,1-1-.53,2.72,2.72,0,0,1-.59-.7l.86-.6c.1.13.23.27.38.44a1.86,1.86,0,0,0,.62.44,2.49,2.49,0,0,0,1,.19,2.28,2.28,0,0,0,1.42-.42,1.52,1.52,0,0,0,.56-1.3V60.69h-.09a5.08,5.08,0,0,1-.34.48,2,2,0,0,1-.63.5,2.29,2.29,0,0,1-1.1.22,3,3,0,0,1-1.54-.41,2.88,2.88,0,0,1-1.08-1.18,4.15,4.15,0,0,1-.39-1.88,4.47,4.47,0,0,1,.38-1.9A3,3,0,0,1,115,55.26a2.81,2.81,0,0,1,1.58-.44,2.29,2.29,0,0,1,1.1.22,2.24,2.24,0,0,1,.63.52c.14.19.26.35.34.48h.11V54.91h1.05V62.2a2.53,2.53,0,0,1-.41,1.49,2.41,2.41,0,0,1-1.11.85A4.24,4.24,0,0,1,116.72,64.81Zm0-3.9a2,2,0,0,0,1.1-.3,1.8,1.8,0,0,0,.69-.86,3.46,3.46,0,0,0,.24-1.35,3.74,3.74,0,0,0-.23-1.35,2,2,0,0,0-.69-.92,1.83,1.83,0,0,0-1.11-.33,1.79,1.79,0,0,0-1.15.35,2,2,0,0,0-.69.94,3.64,3.64,0,0,0-.23,1.31,3.47,3.47,0,0,0,.23,1.3,1.84,1.84,0,0,0,1.84,1.21Z" transform="translate(-1.33 -10.56)" fill="#868d96"/><path d="M124.76,62.15a3.26,3.26,0,0,1-1.77-.46,3.06,3.06,0,0,1-1.14-1.27,4.26,4.26,0,0,1-.4-1.91,4.31,4.31,0,0,1,.4-1.92,3.1,3.1,0,0,1,1.12-1.3,3,3,0,0,1,1.68-.47,3.41,3.41,0,0,1,1.09.18,2.58,2.58,0,0,1,1,.6,3,3,0,0,1,.71,1.09,4.54,4.54,0,0,1,.26,1.67v.46h-5.46v-.94h4.36a2.31,2.31,0,0,0-.24-1.07,1.87,1.87,0,0,0-.68-.74,1.89,1.89,0,0,0-1-.27,1.92,1.92,0,0,0-1.13.32,2.17,2.17,0,0,0-.73.83,2.57,2.57,0,0,0-.25,1.1v.63a3,3,0,0,0,.28,1.36,2,2,0,0,0,.78.84,2.29,2.29,0,0,0,1.16.29,2.45,2.45,0,0,0,.78-.12,1.84,1.84,0,0,0,.6-.37,1.64,1.64,0,0,0,.39-.62l1,.3a2.27,2.27,0,0,1-.56.94,2.61,2.61,0,0,1-1,.62A3.49,3.49,0,0,1,124.76,62.15Z" transform="translate(-1.33 -10.56)" fill="#868d96"/><path d="M129.36,62V54.91h1V56h.09a1.82,1.82,0,0,1,.72-.89,2.12,2.12,0,0,1,1.18-.31,2,2,0,0,1,1.17.31,2.08,2.08,0,0,1,.73.89h.08a2,2,0,0,1,.82-.88,2.44,2.44,0,0,1,1.3-.32,2.12,2.12,0,0,1,1.56.59,2.5,2.5,0,0,1,.6,1.84V62h-1.09V57.25a1.34,1.34,0,0,0-.43-1.12,1.59,1.59,0,0,0-1-.33,1.5,1.5,0,0,0-1.16.45,1.62,1.62,0,0,0-.41,1.13V62h-1.1V57.14a1.29,1.29,0,0,0-.4-1,1.4,1.4,0,0,0-1-.37,1.47,1.47,0,0,0-.79.22,1.71,1.71,0,0,0-.59.63,1.82,1.82,0,0,0-.22.92V62Z" transform="translate(-1.33 -10.56)" fill="#868d96"/><path d="M143.63,62.15a3.29,3.29,0,0,1-1.77-.46,3.06,3.06,0,0,1-1.14-1.27,4.4,4.4,0,0,1-.4-1.91,4.45,4.45,0,0,1,.4-1.92,3.1,3.1,0,0,1,1.12-1.3,3,3,0,0,1,1.68-.47,3.41,3.41,0,0,1,1.09.18,2.69,2.69,0,0,1,1,.6,2.93,2.93,0,0,1,.7,1.09,4.53,4.53,0,0,1,.27,1.67v.46H141.1v-.94h4.36a2.31,2.31,0,0,0-.24-1.07,1.84,1.84,0,0,0-.67-.74,2,2,0,0,0-1-.27,1.92,1.92,0,0,0-1.13.32,2.14,2.14,0,0,0-.72.83,2.44,2.44,0,0,0-.26,1.1v.63a3.11,3.11,0,0,0,.28,1.36,2,2,0,0,0,.78.84,2.29,2.29,0,0,0,1.16.29,2.41,2.41,0,0,0,.78-.12,1.84,1.84,0,0,0,.6-.37,1.64,1.64,0,0,0,.39-.62l1.06.3a2.51,2.51,0,0,1-.56.94,2.78,2.78,0,0,1-1,.62A3.58,3.58,0,0,1,143.63,62.15Z" transform="translate(-1.33 -10.56)" fill="#868d96"/><path d="M149.32,57.73V62h-1.09V54.91h1.05V56h.09a2.06,2.06,0,0,1,.76-.87,2.36,2.36,0,0,1,1.31-.33,2.55,2.55,0,0,1,1.26.29,2,2,0,0,1,.84.89,3.27,3.27,0,0,1,.3,1.49V62h-1.09V57.57a1.86,1.86,0,0,0-.43-1.31,1.55,1.55,0,0,0-1.19-.46,1.88,1.88,0,0,0-.93.22,1.59,1.59,0,0,0-.65.66A2.14,2.14,0,0,0,149.32,57.73Z" transform="translate(-1.33 -10.56)" fill="#868d96"/><path d="M158.92,54.91v.92h-3.68v-.92Zm-2.61-1.7h1.09V60a1.37,1.37,0,0,0,.14.69.67.67,0,0,0,.35.3,1.44,1.44,0,0,0,.46.08l.29,0,.19,0,.22,1-.31.09a2.35,2.35,0,0,1-.5,0,2.11,2.11,0,0,1-.91-.2,1.83,1.83,0,0,1-.73-.6,1.74,1.74,0,0,1-.29-1Z" transform="translate(-1.33 -10.56)" fill="#868d96"/><path d="M169.54,54.91a1.45,1.45,0,0,0-.68-1.09,2.55,2.55,0,0,0-1.45-.39,2.79,2.79,0,0,0-1.09.2,1.76,1.76,0,0,0-.73.56,1.31,1.31,0,0,0-.26.81,1.15,1.15,0,0,0,.18.65,1.56,1.56,0,0,0,.47.45,3.32,3.32,0,0,0,.6.29l.57.18,1,.26a6.48,6.48,0,0,1,.82.27,4,4,0,0,1,.87.46,2.48,2.48,0,0,1,.69.75,2.19,2.19,0,0,1,.27,1.12,2.56,2.56,0,0,1-.39,1.39,2.78,2.78,0,0,1-1.17,1,4.83,4.83,0,0,1-3.61,0,2.74,2.74,0,0,1-1.16-.92,2.62,2.62,0,0,1-.48-1.36h1.18a1.49,1.49,0,0,0,.36.89,1.87,1.87,0,0,0,.81.51,3,3,0,0,0,1.05.17,3.18,3.18,0,0,0,1.18-.21,2.13,2.13,0,0,0,.82-.6,1.44,1.44,0,0,0,.31-.9,1.1,1.1,0,0,0-.27-.77,1.78,1.78,0,0,0-.69-.48,7.22,7.22,0,0,0-.93-.33l-1.16-.33a4.2,4.2,0,0,1-1.75-.91,2,2,0,0,1-.65-1.54,2.3,2.3,0,0,1,.43-1.39,2.87,2.87,0,0,1,1.16-.92,4,4,0,0,1,1.64-.33,3.86,3.86,0,0,1,1.63.32,2.78,2.78,0,0,1,1.12.89,2.18,2.18,0,0,1,.44,1.28Z" transform="translate(-1.33 -10.56)" fill="#868d96"/><path d="M173.21,64.66a3.47,3.47,0,0,1-.49,0,1.08,1.08,0,0,1-.3-.09l.27-1a2,2,0,0,0,.71.07.83.83,0,0,0,.54-.27,2.29,2.29,0,0,0,.44-.78l.2-.55L172,54.91h1.18l2,5.65h.07l2-5.65h1.18l-3,8.12a3.1,3.1,0,0,1-.51.92,1.83,1.83,0,0,1-.69.53A2.11,2.11,0,0,1,173.21,64.66Z" transform="translate(-1.33 -10.56)" fill="#868d96"/><path d="M184.77,56.5l-1,.27a1.73,1.73,0,0,0-.27-.47,1.33,1.33,0,0,0-.48-.39,1.75,1.75,0,0,0-.78-.15,1.84,1.84,0,0,0-1.08.3.87.87,0,0,0-.43.75.75.75,0,0,0,.29.64,2.34,2.34,0,0,0,.92.39l1.06.26a2.92,2.92,0,0,1,1.41.71A1.65,1.65,0,0,1,184.9,60a1.82,1.82,0,0,1-.35,1.09,2.27,2.27,0,0,1-1,.76,3.47,3.47,0,0,1-1.45.28,3.26,3.26,0,0,1-1.8-.47,2.15,2.15,0,0,1-.9-1.38l1-.26a1.42,1.42,0,0,0,.56.86,1.86,1.86,0,0,0,1.08.29,2,2,0,0,0,1.21-.33.94.94,0,0,0,.45-.78.83.83,0,0,0-.25-.62,1.76,1.76,0,0,0-.8-.38l-1.18-.27a2.87,2.87,0,0,1-1.43-.72A1.87,1.87,0,0,1,180,55.8a2.23,2.23,0,0,1,.92-.72,3.21,3.21,0,0,1,1.34-.26,2.63,2.63,0,0,1,1.65.46A2.44,2.44,0,0,1,184.77,56.5Z" transform="translate(-1.33 -10.56)" fill="#868d96"/><path d="M189.63,54.91v.92H186v-.92ZM187,53.21h1.09V60a1.37,1.37,0,0,0,.14.69.67.67,0,0,0,.35.3,1.33,1.33,0,0,0,.45.08l.3,0,.19,0,.22,1-.31.09a2.45,2.45,0,0,1-.51,0,2.1,2.1,0,0,1-.9-.2,1.77,1.77,0,0,1-.73-.6,1.74,1.74,0,0,1-.29-1Z" transform="translate(-1.33 -10.56)" fill="#868d96"/><path d="M194.17,62.15a3.29,3.29,0,0,1-1.77-.46,3.06,3.06,0,0,1-1.14-1.27,4.4,4.4,0,0,1-.4-1.91,4.45,4.45,0,0,1,.4-1.92,3.1,3.1,0,0,1,1.12-1.3,3,3,0,0,1,1.68-.47,3.41,3.41,0,0,1,1.09.18,2.69,2.69,0,0,1,1,.6,2.93,2.93,0,0,1,.7,1.09,4.53,4.53,0,0,1,.27,1.67v.46h-5.47v-.94H196a2.31,2.31,0,0,0-.24-1.07,1.84,1.84,0,0,0-.67-.74,2,2,0,0,0-1-.27,1.87,1.87,0,0,0-1.12.32,2.09,2.09,0,0,0-.73.83,2.44,2.44,0,0,0-.26,1.1v.63a3.11,3.11,0,0,0,.28,1.36,2,2,0,0,0,.78.84,2.29,2.29,0,0,0,1.16.29,2.41,2.41,0,0,0,.78-.12,1.84,1.84,0,0,0,.6-.37,1.64,1.64,0,0,0,.39-.62l1.06.3a2.51,2.51,0,0,1-.56.94,2.78,2.78,0,0,1-1,.62A3.58,3.58,0,0,1,194.17,62.15Z" transform="translate(-1.33 -10.56)" fill="#868d96"/><path d="M198.77,62V54.91h1V56h.09a1.82,1.82,0,0,1,.72-.89,2.14,2.14,0,0,1,1.18-.31,2.1,2.1,0,0,1,1.18.31,2.16,2.16,0,0,1,.73.89h.07a2,2,0,0,1,.82-.88,2.46,2.46,0,0,1,1.3-.32,2.1,2.1,0,0,1,1.56.59,2.5,2.5,0,0,1,.61,1.84V62H207V57.25a1.37,1.37,0,0,0-.43-1.12,1.64,1.64,0,0,0-1-.33,1.48,1.48,0,0,0-1.15.45,1.57,1.57,0,0,0-.41,1.13V62h-1.11V57.14a1.25,1.25,0,0,0-.4-1,1.38,1.38,0,0,0-1-.37,1.5,1.5,0,0,0-.79.22,1.71,1.71,0,0,0-.59.63,1.82,1.82,0,0,0-.22.92V62Z" transform="translate(-1.33 -10.56)" fill="#868d96"/><path d="M210.86,62.07a.84.84,0,0,1-.83-.83.77.77,0,0,1,.25-.58.76.76,0,0,1,.58-.25.78.78,0,0,1,.59.25.8.8,0,0,1,.24.58.78.78,0,0,1-.11.42.79.79,0,0,1-.3.3A.73.73,0,0,1,210.86,62.07Z" transform="translate(-1.33 -10.56)" fill="#868d96"/></g></g></svg>